<?xml version="1.0" standalone="no"?>
<!DOCTYPE svg PUBLIC "-//W3C//DTD SVG 20010904//EN"
 "http://www.w3.org/TR/2001/REC-SVG-20010904/DTD/svg10.dtd">
<svg version="1.0" xmlns="http://www.w3.org/2000/svg"
 width="300.000000pt" height="89.000000pt" viewBox="0 0 300.000000 89.000000"
 preserveAspectRatio="xMidYMid meet">
<metadata>
Created by potrace 1.10, written by Peter Selinger 2001-2011
</metadata>
<g transform="translate(0.000000,89.000000) scale(0.100000,-0.100000)"
fill="#000000" stroke="none">
<path d="M2067 879 c-51 -12 -87 -32 -119 -66 -82 -87 -54 -204 62 -261 47
-23 68 -27 140 -27 73 0 92 4 137 28 69 36 103 86 103 150 0 86 -39 133 -137
166 -65 22 -122 25 -186 10z m215 -41 c85 -46 113 -138 65 -209 -12 -19 -27
-32 -31 -31 -5 2 -13 -3 -18 -11 -14 -26 -104 -50 -171 -45 -163 10 -255 132
-182 241 62 90 225 117 337 55z"/>
<path d="M2048 833 c7 -3 16 -2 19 1 4 3 -2 6 -13 5 -11 0 -14 -3 -6 -6z"/>
<path d="M2127 833 c-13 -13 -7 -51 11 -64 14 -11 15 -11 5 1 -7 8 -13 24 -13
36 0 12 6 25 13 27 6 3 7 6 1 6 -6 1 -14 -2 -17 -6z"/>
<path d="M2210 836 c0 -2 9 -6 20 -9 11 -3 18 -1 14 4 -5 9 -34 13 -34 5z"/>
<path d="M1986 805 c-26 -24 -51 -73 -42 -83 3 -2 8 8 12 22 3 15 23 40 42 56
20 17 32 30 26 30 -6 0 -23 -11 -38 -25z"/>
<path d="M2145 810 c-10 -17 36 -61 60 -58 21 3 33 34 18 48 -15 15 -71 22
-78 10z m75 -40 c0 -5 -4 -10 -10 -10 -5 0 -10 5 -10 10 0 6 5 10 10 10 6 0
10 -4 10 -10z"/>
<path d="M2046 791 c-19 -7 -19 -8 2 -13 12 -4 22 -11 22 -17 0 -8 -6 -7 -20
1 -15 10 -22 10 -32 0 -9 -9 -7 -17 12 -37 26 -28 52 -32 69 -11 9 11 6 20
-13 43 -14 17 -23 33 -19 37 8 7 4 7 -21 -3z m44 -71 c0 -5 -4 -10 -10 -10 -5
0 -10 5 -10 10 0 6 5 10 10 10 6 0 10 -4 10 -10z"/>
<path d="M1987 741 c-3 -13 -3 -20 0 -17 4 3 13 0 22 -7 14 -10 14 -10 5 3 -6
8 -13 22 -16 30 -3 10 -6 7 -11 -9z"/>
<path d="M2280 732 c0 -33 -29 -59 -91 -82 -56 -20 -69 -21 -112 -11 -62 14
-75 7 -16 -9 24 -7 63 -22 87 -35 32 -17 50 -21 71 -15 54 15 66 29 66 73 0
23 3 54 8 70 4 17 4 27 -3 27 -5 0 -10 -8 -10 -18z m-20 -102 c13 -9 13 -11 0
-20 -8 -5 -21 -8 -27 -5 -7 2 -13 0 -13 -5 0 -13 -47 -13 -55 -1 -5 9 32 27
48 23 4 -1 7 3 7 8 0 13 21 13 40 0z"/>
<path d="M2344 692 c3 -6 -3 -27 -14 -48 -27 -47 -19 -56 9 -11 24 39 26 53 9
63 -6 4 -8 3 -4 -4z"/>
<path d="M227 836 c-4 -9 3 -16 19 -20 20 -5 35 -27 70 -100 24 -51 44 -97 44
-100 0 -4 -76 -6 -169 -4 -94 1 -173 0 -176 -4 -4 -4 1 -85 10 -180 10 -95 21
-202 24 -238 l6 -65 130 3 c72 2 132 7 133 13 2 5 21 9 43 9 29 0 39 4 39 16
0 8 -4 12 -10 9 -5 -3 -75 -7 -155 -9 l-145 -4 0 37 c0 20 -7 81 -15 136 -25
179 -27 201 -16 185 6 -8 11 -10 11 -5 0 6 5 3 11 -5 8 -12 9 -10 7 10 -2 17
-9 25 -23 25 -23 0 -35 13 -35 38 0 16 2 16 31 2 26 -14 82 -20 223 -24 11 -1
16 -4 13 -8 -4 -4 5 -19 20 -35 15 -15 21 -28 15 -28 -7 0 -12 5 -12 11 0 5
-4 7 -10 4 -6 -3 1 -18 15 -33 19 -20 27 -24 36 -15 10 10 5 24 -19 63 -18 28
-32 58 -32 66 0 24 30 16 40 -11 5 -14 22 -37 36 -50 25 -24 26 -26 11 -43
-10 -10 -17 -22 -17 -26 0 -5 35 -7 78 -5 76 4 78 3 74 -18 -5 -28 43 -60 105
-69 23 -3 41 -11 40 -17 -1 -6 3 -11 8 -12 16 -1 35 -15 35 -26 0 -6 -4 -8 -9
-5 -5 3 -11 0 -14 -8 -4 -9 8 -17 36 -26 39 -11 40 -13 22 -26 -10 -8 -27 -14
-37 -14 -10 0 -18 -7 -18 -16 0 -8 4 -13 9 -10 5 3 15 -2 22 -10 12 -15 14
-14 21 7 l7 24 -2 -25 c-2 -19 -8 -26 -31 -28 -19 -2 -26 0 -21 8 5 8 -8 10
-46 6 -28 -3 -56 -11 -60 -18 -7 -10 -9 -10 -9 0 0 6 -7 12 -16 12 -9 0 -12
-5 -8 -12 6 -10 5 -10 -7 -1 -16 12 -97 13 -116 0 -7 -5 -17 -5 -23 -2 -5 3
-10 1 -10 -4 0 -15 47 -14 53 2 4 9 6 9 6 -1 1 -7 5 -10 11 -7 6 3 10 2 10 -3
0 -15 -19 -19 -95 -21 -38 -1 -73 -5 -76 -9 -12 -13 -20 -80 -10 -86 5 -4 12
-2 15 3 3 5 42 8 85 7 l80 -1 3 45 3 45 130 3 c72 2 136 5 144 8 10 3 12 16 9
47 l-5 43 81 1 c128 2 202 21 249 63 26 24 30 32 21 47 -19 33 -81 54 -216 72
-73 9 -142 22 -153 28 -19 11 -19 12 8 22 64 24 213 4 257 -35 29 -25 41 -3
27 46 -13 44 -13 45 -52 42 -22 -2 -42 -4 -45 -4 -3 0 -53 0 -111 1 -105 1
-107 1 -113 26 -4 14 -13 25 -21 25 -11 0 -13 -4 -6 -17 5 -10 12 -26 15 -35
3 -11 16 -18 33 -19 27 0 28 -1 6 -11 -25 -12 -30 -40 -10 -56 7 -6 33 -14 57
-17 25 -4 59 -11 75 -15 17 -5 60 -11 96 -14 71 -4 129 -27 129 -51 0 -20 -68
-53 -122 -60 -23 -3 -59 -8 -78 -11 -34 -5 -35 -5 -12 11 33 24 28 53 -10 70
-55 23 -107 29 -133 15 -19 -10 -35 -8 -106 17 -95 33 -106 50 -64 89 32 29
66 44 101 44 27 0 32 21 10 43 -13 12 -12 16 10 26 30 13 37 14 30 2 -3 -5 1
-11 9 -15 9 -3 15 0 15 8 0 8 10 21 23 30 19 14 20 15 2 9 -25 -8 -19 0 27 31
25 17 35 20 31 9 -3 -8 17 2 46 22 28 21 50 40 47 42 -9 10 -75 -8 -83 -21 -5
-8 -29 -28 -55 -45 -26 -18 -50 -36 -53 -41 -4 -6 -83 -3 -93 5 -1 1 19 43 44
94 29 59 55 96 69 103 14 6 21 16 18 24 -4 10 -25 14 -78 14 -77 0 -100 -12
-69 -34 17 -13 15 -19 -26 -110 -24 -53 -49 -96 -56 -96 -6 0 -30 44 -52 98
l-41 97 25 9 c52 21 16 31 -113 34 -106 2 -132 0 -136 -12z m221 -25 c-7 -11
-15 -18 -19 -15 -4 2 -7 -5 -6 -16 1 -11 8 -20 17 -20 13 0 13 -1 0 -10 -12
-7 -12 -10 -1 -10 7 0 11 -6 7 -15 -3 -8 -1 -15 4 -15 6 0 10 6 10 13 0 6 7
-1 15 -17 9 -16 13 -38 10 -50 -4 -13 -3 -17 2 -9 6 9 16 -1 32 -34 l22 -46
23 39 c48 84 88 184 83 204 -5 18 -1 20 45 20 l51 0 -28 -22 c-31 -24 -70
-104 -92 -188 -8 -30 -18 -59 -23 -64 -5 -5 -6 -15 -3 -22 3 -8 0 -14 -6 -14
-6 0 -11 -9 -11 -19 0 -26 -19 -31 -108 -30 -42 0 -71 3 -64 6 17 7 15 26 -8
75 -10 24 -36 84 -56 133 -20 50 -48 102 -62 118 l-26 27 102 0 c99 0 102 -1
90 -19z m420 -123 c-2 -6 -10 -14 -16 -16 -7 -2 -10 2 -6 12 7 18 28 22 22 4z
m-195 -105 c-7 -2 -21 -2 -30 0 -10 3 -4 5 12 5 17 0 24 -2 18 -5z m-6 -40 c2
-6 -8 -13 -22 -15 -27 -6 -32 1 -13 20 14 14 30 11 35 -5z m356 -63 c3 -13 0
-16 -14 -13 -10 3 -23 11 -29 18 -8 9 -5 13 14 13 15 0 26 -7 29 -18z m-155
-151 c58 -19 32 -41 -61 -51 -33 -4 -47 -2 -44 6 2 6 0 24 -4 39 l-8 29 42 -7
c23 -3 57 -11 75 -16z m-131 -21 c-3 -8 -6 -5 -6 6 -1 11 2 17 5 13 3 -3 4
-12 1 -19z m106 -55 c-7 -2 -21 -2 -30 0 -10 3 -4 5 12 5 17 0 24 -2 18 -5z
m-382 -140 c12 -15 12 -16 -1 -8 -13 7 -13 6 -2 -7 19 -23 -3 -36 -63 -36 -43
-1 -51 2 -52 19 -1 11 2 17 8 14 5 -4 9 0 9 8 0 10 11 15 36 15 19 0 38 3 41
6 9 8 9 8 24 -11z"/>
<path d="M340 810 c8 -5 22 -10 30 -10 13 0 13 1 0 10 -8 5 -22 10 -30 10 -13
0 -13 -1 0 -10z"/>
<path d="M324 781 c4 -6 16 -16 28 -22 15 -8 18 -8 14 0 -4 6 -16 16 -28 22
-15 8 -18 8 -14 0z"/>
<path d="M943 765 c-18 -8 -33 -19 -33 -25 0 -15 17 -12 24 5 3 8 11 15 17 15
8 0 8 -4 -1 -15 -17 -21 8 -20 38 1 46 32 15 45 -45 19z"/>
<path d="M1295 770 c-22 -4 -36 -8 -31 -9 5 0 4 -7 -2 -14 -15 -18 36 -14 66
4 21 13 30 31 15 28 -5 -1 -26 -5 -48 -9z"/>
<path d="M1552 773 c-24 -3 -32 -9 -28 -18 3 -8 -4 -24 -15 -37 -15 -17 -19
-18 -15 -5 7 24 0 22 -43 -11 -65 -52 -178 -122 -195 -122 -9 0 -16 -4 -16
-10 0 -15 100 -13 100 3 0 6 20 25 45 42 28 19 40 32 32 37 -7 4 -1 11 16 17
16 6 31 11 35 11 12 0 132 84 132 92 0 5 -3 7 -7 6 -5 0 -23 -3 -41 -5z"/>
<path d="M1229 725 c-1 -3 -2 -10 -3 -17 0 -6 -12 -15 -26 -18 -14 -4 -58 -30
-99 -59 -41 -28 -83 -51 -93 -51 -10 0 -18 -4 -18 -9 0 -15 129 -12 190 4 109
28 205 100 178 132 -9 11 -27 14 -70 11 -31 -2 -55 -1 -52 4 3 4 3 8 0 8 -3 0
-7 -2 -7 -5z m76 -37 c2 -2 -7 -15 -19 -29 -25 -29 -120 -69 -163 -69 -22 0
-14 9 52 55 57 39 86 53 103 50 14 -2 26 -5 27 -7z m35 3 c0 -5 -6 -14 -14
-20 -12 -10 -13 -8 -9 8 5 21 23 30 23 12z"/>
<path d="M1005 711 c-35 -7 -99 -40 -92 -48 3 -2 14 0 24 5 10 5 42 15 72 22
44 10 55 10 62 -1 6 -10 9 -11 9 -1 0 6 5 12 11 12 8 0 8 -5 -1 -15 -7 -8 -15
-13 -19 -11 -11 7 -176 -31 -223 -52 -52 -22 -67 -40 -47 -53 14 -9 70 -6 102
6 10 4 17 2 17 -4 0 -6 13 -10 30 -9 17 1 30 7 30 13 0 6 34 35 75 64 89 62
96 82 28 80 -27 -1 -61 -4 -78 -8z m5 -67 c0 -11 -111 -54 -138 -53 -27 0 -26
1 8 17 19 9 38 21 42 27 4 5 10 7 13 3 3 -3 18 -2 33 2 34 11 42 11 42 4z
m-170 -54 c0 -5 -5 -10 -11 -10 -5 0 -7 5 -4 10 3 6 8 10 11 10 2 0 4 -4 4
-10z m130 6 c0 -3 -4 -8 -10 -11 -5 -3 -10 -1 -10 4 0 6 5 11 10 11 6 0 10 -2
10 -4z"/>
<path d="M1564 695 c-72 -27 -127 -61 -144 -89 -31 -49 77 -63 161 -20 61 30
58 43 -4 19 -24 -9 -58 -15 -76 -13 -28 3 -31 5 -19 20 9 12 45 22 113 34 103
17 132 31 122 58 -9 24 -80 20 -153 -9z m126 -6 c0 -5 -4 -9 -10 -9 -5 0 -10
7 -10 16 0 8 5 12 10 9 6 -3 10 -10 10 -16z m-30 1 c0 -5 -10 -12 -22 -15
-118 -26 -132 -25 -55 7 48 19 77 22 77 8z m-200 -92 c0 -16 -3 -19 -11 -11
-6 6 -8 16 -5 22 11 17 16 13 16 -11z"/>
<path d="M275 520 c3 -5 11 -10 16 -10 6 0 7 5 4 10 -3 6 -11 10 -16 10 -6 0
-7 -4 -4 -10z"/>
<path d="M1620 461 c-24 -4 -31 -9 -22 -14 17 -11 0 -33 -42 -53 l-31 -15 35
32 c20 19 24 25 10 16 -14 -9 -69 -46 -122 -81 -53 -36 -108 -68 -122 -72 -43
-10 -29 -19 27 -18 28 1 50 5 47 8 -6 6 68 61 190 139 49 33 90 61 90 63 0 5
-12 4 -60 -5z"/>
<path d="M1960 447 c-29 -14 -39 -23 -28 -25 20 -4 78 24 78 38 0 12 4 13 -50
-13z"/>
<path d="M2099 448 c-12 -13 -18 -16 -14 -8 6 12 5 13 -5 3 -36 -33 31 -27 71
7 l24 19 -27 1 c-15 0 -37 -10 -49 -22z"/>
<path d="M1324 400 c-110 -31 -226 -103 -209 -130 26 -42 228 14 309 84 56 50
2 74 -100 46z m57 -10 c17 0 9 -26 -13 -47 -27 -25 -135 -63 -175 -63 l-28 1
35 30 c40 35 102 69 125 69 8 0 15 5 15 11 0 6 7 8 16 5 9 -3 20 -6 25 -6z
m-213 -90 c-7 -11 -17 -20 -22 -20 -5 0 -1 9 9 20 10 11 20 20 22 20 2 0 -2
-9 -9 -20z"/>
<path d="M2164 400 c-104 -27 -204 -86 -204 -120 0 -41 113 -29 215 21 152 74
145 138 -11 99z m66 -24 c0 -19 -42 -54 -75 -62 -16 -4 -35 -11 -41 -15 -6 -5
-33 -12 -60 -15 l-49 -5 40 35 c22 20 60 43 85 53 25 9 49 20 53 23 12 11 47
0 47 -14z m-230 -86 c0 -5 -4 -10 -10 -10 -5 0 -10 5 -10 10 0 6 5 10 10 10 6
0 10 -4 10 -10z"/>
<path d="M2469 405 c-26 -7 -53 -16 -60 -21 -12 -7 -12 -5 0 9 12 15 10 17
-18 17 -17 0 -31 -4 -31 -10 0 -5 7 -10 16 -10 8 0 12 -4 9 -10 -3 -5 -17 -10
-31 -10 -14 0 -45 -14 -70 -30 -24 -17 -67 -42 -96 -55 -29 -14 -51 -25 -48
-26 38 -5 100 -2 100 6 1 11 75 63 130 91 40 19 100 35 100 25 -1 -14 -160
-111 -184 -111 -9 0 -16 -4 -16 -8 0 -14 99 -8 102 6 2 7 39 36 82 65 44 28
82 57 83 63 6 19 -19 22 -68 9z m31 -19 c0 -3 -4 -8 -10 -11 -5 -3 -10 -1 -10
4 0 6 5 11 10 11 6 0 10 -2 10 -4z"/>
<path d="M1620 397 c0 -8 -39 -40 -87 -72 -71 -47 -83 -59 -70 -67 11 -6 36
-4 71 5 35 9 53 10 50 3 -2 -6 9 -11 26 -12 16 -1 30 4 30 10 0 7 29 31 65 55
36 23 63 47 60 52 -3 5 0 7 7 4 7 -3 24 4 38 15 l25 20 -35 -1 c-26 0 -40 -6
-54 -26 -11 -14 -13 -23 -6 -18 9 5 11 4 6 -4 -4 -6 -11 -9 -16 -6 -5 3 -40
-10 -77 -29 -75 -38 -123 -52 -123 -36 0 5 4 10 8 10 8 0 138 84 157 101 5 5
-8 9 -33 9 -29 0 -42 -4 -42 -13z m-105 -117 c-3 -5 -11 -10 -16 -10 -6 0 -7
5 -4 10 3 6 11 10 16 10 6 0 7 -4 4 -10z"/>
<path d="M1857 402 c-9 -2 -15 -7 -12 -12 3 -4 -31 -31 -76 -60 -44 -28 -78
-57 -76 -63 6 -18 188 -16 195 2 3 7 46 40 96 73 50 33 93 62 95 64 2 2 -14 4
-37 4 -29 0 -42 -4 -42 -14 0 -23 -150 -108 -197 -112 -24 -1 -43 -1 -43 0 0
10 163 107 173 103 7 -3 24 1 38 8 22 13 19 13 -36 12 -33 -1 -68 -3 -78 -5z
m-117 -122 c0 -5 -5 -10 -11 -10 -5 0 -7 5 -4 10 3 6 8 10 11 10 2 0 4 -4 4
-10z"/>
<path d="M2595 391 c-22 -11 -32 -20 -22 -20 9 -1 17 -8 17 -16 0 -17 -25 -20
-35 -5 -4 6 -11 8 -16 5 -18 -12 -9 -25 24 -33 l32 -9 -32 -16 c-55 -29 -138
-17 -86 12 10 5 16 12 13 14 -3 3 -26 -8 -52 -26 -27 -17 -46 -32 -44 -35 10
-9 146 -3 166 8 28 15 36 7 15 -14 -23 -23 -2 -20 26 4 17 14 20 19 9 20 -8 0
0 10 18 21 40 26 40 36 2 53 l-31 12 26 12 c30 14 75 16 75 4 0 -4 -5 -13 -12
-20 -20 -20 0 -13 42 14 22 15 40 28 40 29 0 1 -30 3 -67 3 -48 1 -80 -4 -108
-17z m30 -61 c-3 -5 -10 -10 -16 -10 -5 0 -9 5 -9 10 0 6 7 10 16 10 8 0 12
-4 9 -10z"/>
<path d="M2770 364 c0 -8 -19 -34 -43 -59 l-44 -45 29 0 c16 0 27 4 23 10 -3
5 15 30 40 56 25 26 45 48 45 50 0 1 -11 2 -25 2 -14 0 -25 -6 -25 -14z"/>
<path d="M516 299 c7 -33 14 -62 16 -62 2 -1 39 1 83 4 l80 5 -77 2 c-67 2
-78 5 -78 20 0 9 -3 28 -7 41 l-6 24 29 -22 c16 -12 48 -24 69 -26 l40 -5 -43
14 c-24 8 -54 26 -67 40 -42 46 -54 35 -39 -35z"/>
<path d="M2804 333 c3 -3 -6 -21 -21 -39 -35 -46 -12 -43 28 4 17 20 28 30 23
22 -7 -13 -5 -13 9 -1 24 19 21 -2 -3 -24 -25 -22 -26 -38 -2 -33 9 2 16 9 15
15 -1 6 7 19 17 28 30 27 25 33 -26 33 -25 0 -43 -2 -40 -5z"/>
<path d="M2901 308 c-32 -31 -32 -33 -13 -41 24 -11 72 -1 72 14 0 6 -8 6 -21
-2 -35 -18 -45 5 -13 30 29 23 50 28 38 10 -4 -7 -1 -10 6 -7 27 9 22 28 -7
28 -19 0 -40 -11 -62 -32z"/>
<path d="M2970 270 c0 -5 7 -10 15 -10 8 0 15 5 15 10 0 6 -7 10 -15 10 -8 0
-15 -4 -15 -10z"/>
<path d="M223 73 c9 -2 25 -2 35 0 9 3 1 5 -18 5 -19 0 -27 -2 -17 -5z"/>
<path d="M505 70 c3 -5 24 -10 45 -10 21 0 41 -4 44 -9 3 -5 -46 -12 -112 -16
-64 -4 -127 -8 -139 -10 -12 -2 -35 0 -50 5 -15 5 -22 9 -15 9 6 1 12 4 12 9
0 4 -19 7 -42 7 -24 1 -50 4 -59 8 -12 6 -18 2 -22 -12 -4 -17 3 -21 45 -31
64 -16 460 -8 466 9 6 17 -84 51 -134 51 -28 0 -43 -4 -39 -10z"/>
</g>
</svg>
